<svg width="53" height="61" viewBox="0 0 53 61" fill="none" xmlns="http://www.w3.org/2000/svg">
<path d="M16.2351 25.3101V12.6602C16.243 9.96972 17.3146 7.39141 19.2161 5.48804C21.1176 3.58466 23.6948 2.51055 26.3853 2.5C29.0774 2.50791 31.6569 3.58096 33.5605 5.48462C35.4642 7.38828 36.5373 9.96799 36.5452 12.6602V25.3101M50.225 47.7301L47.1652 25.0701C46.8754 23.2017 45.9183 21.5016 44.4714 20.2845C43.0244 19.0674 41.1855 18.4156 39.2951 18.45H13.485C11.5946 18.4156 9.75569 19.0674 8.30876 20.2845C6.86183 21.5016 5.90498 23.2017 5.61515 25.0701L2.55509 47.7301C2.41181 49.0304 2.54882 50.3464 2.95671 51.5894C3.3646 52.8324 4.03396 53.9737 4.91984 54.9364C5.80572 55.899 6.88754 56.6605 8.09245 57.17C9.29736 57.6795 10.5974 57.9252 11.9052 57.8902H40.9052C42.2104 57.9209 43.5071 57.6722 44.7084 57.1607C45.9097 56.6493 46.9877 55.8868 47.8703 54.9246C48.7529 53.9625 49.4195 52.8229 49.8256 51.5821C50.2317 50.3413 50.3679 49.0278 50.225 47.7301Z" stroke="#E95322" stroke-width="5" stroke-linecap="round" stroke-linejoin="round"/>
</svg>
