<svg width="62" height="64" viewBox="0 0 62 64" fill="none" xmlns="http://www.w3.org/2000/svg">
<path d="M46.8145 31.1504C47.3002 27.1317 46.1715 23.0843 43.676 19.897C41.1806 16.7097 37.5224 14.643 33.5045 14.1504M58.4445 32.4004C58.8765 28.9021 58.6144 25.3529 57.6733 21.9561C56.7322 18.5592 55.1306 15.3812 52.96 12.604C50.7893 9.82682 48.0923 7.50495 45.0233 5.77124C41.9543 4.03753 38.5735 2.92594 35.0745 2.50024M42.7944 40.8804C42.2467 40.4214 41.6289 40.0533 40.9645 39.7903C37.2545 38.4203 34.2145 41.4103 30.7545 40.7903C27.0645 40.1003 23.9645 36.4103 22.2245 33.3203C21.2172 31.7053 20.8599 29.7685 21.2245 27.9004C22.3445 23.4704 25.7945 21.6103 24.4645 16.5503C23.4645 12.8503 19.5744 7.39038 15.6944 6.38038C8.75444 4.57038 5.04443 11.2102 3.56443 16.9202C-1.64557 36.9202 12.9345 58.2002 33.3545 60.9202C39.3545 61.7302 48.4845 61.0702 48.9945 53.2302C49.2845 48.7302 46.6644 44.5203 43.5244 41.5903L42.7944 40.8804Z" stroke="#E95322" stroke-width="5" stroke-linecap="round" stroke-linejoin="round"/>
</svg>
