<svg width="73" height="70" viewBox="0 0 73 70" fill="none" xmlns="http://www.w3.org/2000/svg">
<path d="M58.7603 13.6399C59.5149 13.9582 60.2525 14.3154 60.9702 14.71C61.266 14.8678 61.5529 15.0414 61.8301 15.23C68.2101 19.23 69.8303 26.92 70.0303 33.52C70.0303 34.52 70.0303 35.52 70.0303 36.52V66.6599L57.0303 59.1499H49.1201C46.4652 59.4661 43.7938 59.623 41.1201 59.6199C38.2564 59.6435 35.3942 59.4865 32.5503 59.1499C25.4803 58.2899 18.55 56.07 15 50.95M57.29 11.6499C55.7682 9.55822 53.7833 7.84695 51.4902 6.6499C47.2121 4.49451 42.5484 3.20966 37.77 2.86987C35.5 2.64987 32.9904 2.51 30.3804 2.5C24.0204 2.5 17.1304 3.19998 11.6104 6.22998C11.3146 6.38777 11.0271 6.56137 10.75 6.75C4.37 10.75 2.75029 18.44 2.55029 25.04C2.55029 26.04 2.5 27.04 2.5 28.04V58.1899L15.5 50.6799C15.5 50.6799 28.8502 51.1399 31.4502 51.1499C34.3139 51.1735 37.1761 51.0166 40.02 50.6799C49.22 49.5699 58.1301 46.13 59.8301 37.04C60.4848 33.5141 60.8195 29.936 60.8301 26.3499C60.8301 20.9399 59.95 15.4299 57.29 11.6499Z" stroke="#E95322" stroke-width="5" stroke-linecap="round" stroke-linejoin="round"/>
</svg>
