<svg width="74" height="74" viewBox="0 0 74 74" fill="none" xmlns="http://www.w3.org/2000/svg">
<path d="M35.2237 36.7731H2.50369M10.9038 45.593L4.43359 40.6831C3.83248 40.2249 3.34515 39.6341 3.00977 38.9568C2.67438 38.2795 2.5 37.5339 2.5 36.7781C2.5 36.0223 2.67438 35.2767 3.00977 34.5994C3.34515 33.922 3.83248 33.3312 4.43359 32.873L10.9038 27.9531M56.5437 15.2231V58.3231M23.3335 50.4531C29.3335 72.7831 46.2637 71.0131 46.2637 71.0131C46.2637 71.0131 63.2638 72.7831 69.1938 50.4531C71.5238 41.4819 71.5238 32.0642 69.1938 23.093C63.2438 0.762966 46.2637 2.53315 46.2637 2.53315C46.2637 2.53315 29.2635 0.762966 23.3335 23.093" stroke="#E95322" stroke-width="5" stroke-linecap="round" stroke-linejoin="round"/>
</svg>
