<svg width="67" height="73" viewBox="0 0 67 73" fill="none" xmlns="http://www.w3.org/2000/svg">
<path d="M56.087 39.6399L60.4071 42.1299C61.9796 43.0397 63.127 44.5363 63.5975 46.291C64.0681 48.0458 63.8234 49.9155 62.9171 51.49L61.3871 54.1399C60.9367 54.9187 60.3373 55.6011 59.6232 56.1482C58.909 56.6953 58.094 57.0965 57.2249 57.3286C56.3557 57.5608 55.4494 57.6194 54.5575 57.5012C53.6657 57.383 52.8058 57.0904 52.0271 56.6399L47.7271 54.1599C45.848 55.6708 43.7465 56.8819 41.4971 57.75V62.75C41.4971 64.5667 40.7754 66.3089 39.4907 67.5935C38.2061 68.8781 36.4638 69.5999 34.6471 69.5999H31.587C29.7703 69.5999 28.028 68.8781 26.7434 67.5935C25.4588 66.3089 24.7371 64.5667 24.7371 62.75V57.75C22.4876 56.8819 20.3861 55.6708 18.5071 54.1599L14.437 56.51C13.6276 56.9777 12.7341 57.2811 11.8073 57.4031C10.8804 57.525 9.9386 57.4631 9.03578 57.2207C8.13296 56.9783 7.28685 56.56 6.54579 55.9902C5.80472 55.4204 5.18327 54.7101 4.71705 53.8999L3.45704 51.72C2.98867 50.9104 2.68447 50.0165 2.56165 49.0894C2.43884 48.1622 2.4999 47.22 2.74134 46.3164C2.98279 45.4128 3.39983 44.5656 3.96876 43.8232C4.53769 43.0809 5.24727 42.458 6.05702 41.99L10.1371 39.6399C9.73709 37.2633 9.73709 34.8366 10.1371 32.46L6.05702 30.1099C5.24727 29.6418 4.53769 29.0189 3.96876 28.2766C3.39983 27.5343 2.98279 26.6873 2.74134 25.7837C2.4999 24.8801 2.43884 23.9377 2.56165 23.0105C2.68447 22.0833 2.98867 21.1894 3.45704 20.3799L4.71705 18.2C5.18327 17.3897 5.80472 16.6794 6.54579 16.1096C7.28685 15.5398 8.13296 15.1216 9.03578 14.8792C9.9386 14.6367 10.8804 14.5748 11.8073 14.6968C12.7341 14.8187 13.6276 15.1221 14.437 15.5898L18.5071 17.9399C20.3861 16.4291 22.4876 15.218 24.7371 14.3499V9.34985C24.7371 7.53312 25.4588 5.79097 26.7434 4.50635C28.028 3.22172 29.7703 2.5 31.587 2.5H34.6471C36.4638 2.5 38.2061 3.22172 39.4907 4.50635C40.7754 5.79097 41.4971 7.53312 41.4971 9.34985V14.3499C43.7465 15.218 45.848 16.4291 47.7271 17.9399L52.0271 15.46C52.8058 15.0095 53.6657 14.7168 54.5575 14.5986C55.4494 14.4805 56.3557 14.5391 57.2249 14.7712C58.094 15.0034 58.909 15.4045 59.6232 15.9517C60.3373 16.4988 60.9367 17.1812 61.3871 17.96L62.9171 20.6099C63.8234 22.1844 64.0681 24.0543 63.5975 25.8091C63.127 27.5638 61.9796 29.0602 60.4071 29.97L56.087 32.46C56.5004 34.8354 56.5004 37.2644 56.087 39.6399Z" stroke="#E95322" stroke-width="5" stroke-linecap="round" stroke-linejoin="round"/>
</svg>
