<svg width="152" height="179" viewBox="0 0 152 179" fill="none" xmlns="http://www.w3.org/2000/svg">
<path d="M119.589 69.2768V30.1203C119.589 23.6113 117.003 17.3685 112.401 12.7659C107.798 8.16328 101.556 5.57788 95.0466 5.57788H47.5457C44.2224 5.57559 41.0261 6.85379 38.6212 9.14737L9.30407 38.0186C8.24448 39.0718 7.38959 40.3123 6.78288 41.6775C5.98251 43.3566 5.57062 45.1942 5.57798 47.0543V148.035C5.57798 154.544 8.16391 160.787 12.7665 165.39C17.3691 169.992 23.6114 172.578 30.1204 172.578H95.1134C100.309 172.57 105.369 170.913 109.563 167.845C113.757 164.778 116.869 160.459 118.451 155.51M69.5892 40.6512H98.527M25.2566 69.2766H98.527M101.115 102.788H146.229M130.878 88.0405L143.774 97.8349C144.537 98.4134 145.156 99.1607 145.581 100.018C146.007 100.875 146.229 101.82 146.229 102.777C146.229 103.734 146.007 104.679 145.581 105.536C145.156 106.393 144.537 107.141 143.774 107.719L130.878 117.514M125.368 136.88H80.3656M95.6043 151.605L82.8867 141.944C82.1012 141.352 81.4639 140.585 81.0252 139.704C80.5864 138.823 80.3582 137.853 80.3582 136.869C80.3582 135.885 80.5864 134.914 81.0252 134.034C81.4639 133.153 82.1012 132.386 82.8867 131.793L95.6043 122.132M42.3025 6.80511V25.3231C42.3055 27.4814 41.8829 29.6196 41.0589 31.6145C40.235 33.6094 39.0258 35.4222 37.5006 36.9494C35.9755 38.4766 34.1644 39.6879 32.1706 40.5145C30.1769 41.3411 28.0397 41.7668 25.8814 41.7668H6.84978C7.45649 40.4016 8.31138 39.1611 9.37097 38.108L38.6881 9.2367C39.7421 8.22172 40.9653 7.39905 42.3025 6.80511Z" stroke="#FFDECF" stroke-width="11.1557" stroke-linecap="round" stroke-linejoin="round"/>
</svg>
