<svg width="14" height="14" viewBox="0 0 14 14" fill="none" xmlns="http://www.w3.org/2000/svg">
<path d="M9.62382 2.94705L8.28027 1.14483C8.12953 0.944045 7.93645 0.781558 7.71595 0.66981C7.49546 0.558062 7.25327 0.5 7.00784 0.5C6.7624 0.5 6.52021 0.558062 6.29972 0.66981C6.07922 0.781558 5.88628 0.944045 5.73553 1.14483L4.39199 2.94705C4.20325 3.20097 3.94888 3.39416 3.65842 3.50415L1.59206 4.27574C1.35615 4.35911 1.14211 4.49807 0.966735 4.68166C0.791355 4.86526 0.659369 5.08848 0.581253 5.33384C0.503137 5.5792 0.480929 5.83996 0.516437 6.09571C0.551946 6.35145 0.644237 6.59516 0.785933 6.80772L2.02202 8.69352C2.19196 8.95893 2.28519 9.26922 2.29073 9.58772L2.36053 11.8635C2.3657 12.1212 2.42841 12.3742 2.54356 12.6027C2.65872 12.8312 2.8233 13.0289 3.02443 13.1805C3.22557 13.3321 3.45772 13.4334 3.7029 13.4765C3.94807 13.5196 4.19955 13.5033 4.43765 13.4289L6.5498 12.7938C6.84545 12.7042 7.1596 12.7042 7.45525 12.7938L9.5674 13.4289C9.8055 13.5033 10.057 13.5196 10.3021 13.4765C10.5473 13.4334 10.7795 13.3321 10.9806 13.1805C11.1817 13.0289 11.3463 12.8312 11.4615 12.6027C11.5766 12.3742 11.6393 12.1212 11.6445 11.8635L11.7143 9.58772C11.7216 9.26952 11.8147 8.95972 11.983 8.69352L13.2191 6.80772C13.3583 6.59526 13.4488 6.35264 13.4838 6.09836C13.5187 5.84408 13.4971 5.58494 13.4206 5.34064C13.3442 5.09634 13.2148 4.87336 13.0425 4.68881C12.8702 4.50425 12.6594 4.36296 12.4264 4.27574L10.3574 3.50415C10.0669 3.39416 9.81255 3.20097 9.62382 2.94705Z" stroke="#E95322" stroke-linecap="round" stroke-linejoin="round"/>
</svg>
