<svg width="223" height="264" viewBox="0 0 223 264" fill="none" xmlns="http://www.w3.org/2000/svg">
<path d="M18.6088 224.528V229.964H8.78166V234.285H16.03V239.478H8.78166V249.096H1.95148V224.528H18.6088ZM33.2639 249.34C30.964 249.34 28.8499 248.805 26.9216 247.737C24.9934 246.645 23.4601 245.146 22.3217 243.241C21.2066 241.313 20.649 239.141 20.649 236.725C20.649 234.309 21.2066 232.148 22.3217 230.243C23.4601 228.315 24.9934 226.816 26.9216 225.748C28.8499 224.679 30.964 224.145 33.2639 224.145C35.5871 224.145 37.7012 224.679 39.6062 225.748C41.5345 226.816 43.0562 228.315 44.1713 230.243C45.2864 232.148 45.844 234.309 45.844 236.725C45.844 239.141 45.2864 241.313 44.1713 243.241C43.0562 245.146 41.5345 246.645 39.6062 247.737C37.678 248.805 35.5639 249.34 33.2639 249.34ZM33.2639 242.997C35.0063 242.997 36.377 242.428 37.376 241.29C38.3982 240.151 38.9093 238.63 38.9093 236.725C38.9093 234.773 38.3982 233.24 37.376 232.125C36.377 230.986 35.0063 230.417 33.2639 230.417C31.4983 230.417 30.116 230.986 29.117 232.125C28.1181 233.24 27.6186 234.773 27.6186 236.725C27.6186 238.653 28.1181 240.186 29.117 241.325C30.116 242.44 31.4983 242.997 33.2639 242.997ZM60.693 249.34C58.393 249.34 56.2789 248.805 54.3507 247.737C52.4224 246.645 50.8891 245.146 49.7508 243.241C48.6356 241.313 48.0781 239.141 48.0781 236.725C48.0781 234.309 48.6356 232.148 49.7508 230.243C50.8891 228.315 52.4224 226.816 54.3507 225.748C56.2789 224.679 58.393 224.145 60.693 224.145C63.0162 224.145 65.1303 224.679 67.0353 225.748C68.9636 226.816 70.4852 228.315 71.6004 230.243C72.7155 232.148 73.2731 234.309 73.2731 236.725C73.2731 239.141 72.7155 241.313 71.6004 243.241C70.4852 245.146 68.9636 246.645 67.0353 247.737C65.1071 248.805 62.993 249.34 60.693 249.34ZM60.693 242.997C62.4354 242.997 63.8061 242.428 64.805 241.29C65.8273 240.151 66.3384 238.63 66.3384 236.725C66.3384 234.773 65.8273 233.24 64.805 232.125C63.8061 230.986 62.4354 230.417 60.693 230.417C58.9274 230.417 57.5451 230.986 56.5461 232.125C55.5471 233.24 55.0476 234.773 55.0476 236.725C55.0476 238.653 55.5471 240.186 56.5461 241.325C57.5451 242.44 58.9274 242.997 60.693 242.997ZM86.0661 224.528C88.6448 224.528 90.8983 225.051 92.8265 226.096C94.778 227.118 96.2765 228.559 97.3219 230.417C98.3674 232.276 98.8901 234.402 98.8901 236.794C98.8901 239.164 98.3557 241.278 97.2871 243.137C96.2416 244.995 94.7432 246.459 92.7917 247.528C90.8634 248.573 88.6216 249.096 86.0661 249.096H76.3435V224.528H86.0661ZM85.5433 243.067C87.5413 243.067 89.1094 242.521 90.2478 241.429C91.3862 240.337 91.9553 238.792 91.9553 236.794C91.9553 234.773 91.3862 233.217 90.2478 232.125C89.1094 231.01 87.5413 230.452 85.5433 230.452H83.1737V243.067H85.5433Z" fill="#FF642F"/>
<path d="M101.133 236.76C101.133 234.343 101.632 232.194 102.631 230.313C103.653 228.408 105.094 226.932 106.952 225.887C108.811 224.818 110.948 224.284 113.364 224.284C116.431 224.284 119.01 225.109 121.1 226.758C123.191 228.384 124.539 230.603 125.143 233.414H117.79C117.348 232.485 116.733 231.776 115.943 231.288C115.176 230.801 114.282 230.557 113.26 230.557C111.68 230.557 110.414 231.126 109.461 232.264C108.532 233.379 108.067 234.878 108.067 236.76C108.067 238.665 108.532 240.186 109.461 241.325C110.414 242.44 111.68 242.997 113.26 242.997C114.282 242.997 115.176 242.753 115.943 242.266C116.733 241.778 117.348 241.069 117.79 240.14H125.143C124.539 242.951 123.191 245.181 121.1 246.831C119.01 248.457 116.431 249.27 113.364 249.27C110.948 249.27 108.811 248.747 106.952 247.702C105.094 246.633 103.653 245.158 102.631 243.276C101.632 241.371 101.133 239.199 101.133 236.76ZM140.156 249.34C137.856 249.34 135.742 248.805 133.813 247.737C131.885 246.645 130.352 245.146 129.213 243.241C128.098 241.313 127.541 239.141 127.541 236.725C127.541 234.309 128.098 232.148 129.213 230.243C130.352 228.315 131.885 226.816 133.813 225.748C135.742 224.679 137.856 224.145 140.156 224.145C142.479 224.145 144.593 224.679 146.498 225.748C148.426 226.816 149.948 228.315 151.063 230.243C152.178 232.148 152.736 234.309 152.736 236.725C152.736 239.141 152.178 241.313 151.063 243.241C149.948 245.146 148.426 246.645 146.498 247.737C144.57 248.805 142.456 249.34 140.156 249.34ZM140.156 242.997C141.898 242.997 143.269 242.428 144.268 241.29C145.29 240.151 145.801 238.63 145.801 236.725C145.801 234.773 145.29 233.24 144.268 232.125C143.269 230.986 141.898 230.417 140.156 230.417C138.39 230.417 137.008 230.986 136.009 232.125C135.01 233.24 134.51 234.773 134.51 236.725C134.51 238.653 135.01 240.186 136.009 241.325C137.008 242.44 138.39 242.997 140.156 242.997ZM162.497 224.528V238.781C162.497 240.105 162.799 241.127 163.403 241.847C164.03 242.568 164.971 242.928 166.226 242.928C167.48 242.928 168.421 242.568 169.048 241.847C169.699 241.104 170.024 240.082 170.024 238.781V224.528H176.854V238.781C176.854 241.034 176.378 242.962 175.426 244.565C174.473 246.145 173.172 247.342 171.523 248.155C169.896 248.945 168.084 249.34 166.086 249.34C164.088 249.34 162.299 248.945 160.72 248.155C159.163 247.342 157.932 246.145 157.026 244.565C156.143 242.986 155.702 241.057 155.702 238.781V224.528H162.497ZM193.056 249.096L188.177 240.035H187.445V249.096H180.615V224.528H191.383C193.358 224.528 195.03 224.876 196.401 225.573C197.772 226.247 198.805 227.188 199.502 228.396C200.199 229.581 200.548 230.917 200.548 232.404C200.548 234.076 200.083 235.552 199.154 236.829C198.248 238.084 196.912 238.978 195.146 239.513L200.687 249.096H193.056ZM187.445 235.366H190.825C191.755 235.366 192.451 235.145 192.916 234.704C193.381 234.262 193.613 233.623 193.613 232.787C193.613 231.997 193.369 231.381 192.881 230.94C192.417 230.475 191.731 230.243 190.825 230.243H187.445V235.366ZM222.158 224.528V229.964H215.607V249.096H208.777V229.964H202.295V224.528H222.158Z" fill="#F8F8F8"/>
<path d="M196.573 94.1298C210.451 79.3019 214.851 56.3072 207.429 37.4033C200.007 18.4993 181.137 4.64111 160.878 3.21626C130.171 1.05629 98.2106 30.168 96.9393 60.9273C96.6283 68.4497 98.6982 76.9812 105.238 80.7116C111.325 84.1836 119.633 81.9617 124.199 76.646C128.765 71.3304 129.914 63.6685 128.475 56.8102C127.036 49.9519 123.293 43.7862 118.995 38.2515C104.487 19.5689 84.3632 1.44079 59.1217 3.21626C38.8632 4.64147 19.9931 18.4993 12.5709 37.4033C5.14861 56.3072 9.54928 79.3019 23.4266 94.1298" stroke="#FF642F" stroke-width="6.18942" stroke-miterlimit="10" stroke-linecap="round" stroke-linejoin="round"/>
<path d="M138.79 158.875L118.257 178.85C113.738 183.246 106.496 183.082 102.181 178.484C96.3888 172.313 88.5972 164.12 83.2056 158.875" stroke="#FF642F" stroke-width="6.18942" stroke-miterlimit="10" stroke-linecap="round" stroke-linejoin="round"/>
<path d="M65.1721 139.728C73.6964 131.786 71.608 115.689 60.5075 103.775C49.407 91.8599 33.498 88.6392 24.9737 96.581C16.4494 104.523 18.5378 120.62 29.6383 132.534C40.7388 144.449 56.6478 147.67 65.1721 139.728Z" stroke="#FF642F" stroke-width="6.18942" stroke-miterlimit="10" stroke-linecap="round" stroke-linejoin="round"/>
<path d="M192.221 100.131L163.85 133.11" stroke="#FF642F" stroke-width="6.18942" stroke-miterlimit="10" stroke-linecap="round" stroke-linejoin="round"/>
<path d="M152.73 118.213L174.102 95.5762C184.807 85.999 210.789 105.644 199.144 120.84L177.982 143.256" stroke="#FF642F" stroke-width="6.18942" stroke-miterlimit="10" stroke-linecap="round" stroke-linejoin="round"/>
</svg>
