<svg width="222" height="264" viewBox="0 0 222 264" fill="none" xmlns="http://www.w3.org/2000/svg">
<path d="M18.6088 224.528V229.964H8.78166V234.285H16.03V239.478H8.78166V249.096H1.95148V224.528H18.6088ZM33.2639 249.34C30.964 249.34 28.8499 248.805 26.9216 247.737C24.9934 246.645 23.4601 245.146 22.3217 243.241C21.2066 241.313 20.649 239.141 20.649 236.725C20.649 234.309 21.2066 232.148 22.3217 230.243C23.4601 228.315 24.9934 226.816 26.9216 225.748C28.8499 224.679 30.964 224.145 33.2639 224.145C35.5871 224.145 37.7012 224.679 39.6062 225.748C41.5345 226.816 43.0562 228.315 44.1713 230.243C45.2864 232.148 45.844 234.309 45.844 236.725C45.844 239.141 45.2864 241.313 44.1713 243.241C43.0562 245.146 41.5345 246.645 39.6062 247.737C37.678 248.805 35.5639 249.34 33.2639 249.34ZM33.2639 242.997C35.0063 242.997 36.377 242.428 37.376 241.29C38.3982 240.151 38.9093 238.63 38.9093 236.725C38.9093 234.773 38.3982 233.24 37.376 232.125C36.377 230.986 35.0063 230.417 33.2639 230.417C31.4983 230.417 30.116 230.986 29.117 232.125C28.1181 233.24 27.6186 234.773 27.6186 236.725C27.6186 238.653 28.1181 240.186 29.117 241.325C30.116 242.44 31.4983 242.997 33.2639 242.997ZM60.693 249.34C58.393 249.34 56.2789 248.805 54.3507 247.737C52.4224 246.645 50.8891 245.146 49.7508 243.241C48.6356 241.313 48.0781 239.141 48.0781 236.725C48.0781 234.309 48.6356 232.148 49.7508 230.243C50.8891 228.315 52.4224 226.816 54.3507 225.748C56.2789 224.679 58.393 224.145 60.693 224.145C63.0162 224.145 65.1303 224.679 67.0353 225.748C68.9636 226.816 70.4852 228.315 71.6004 230.243C72.7155 232.148 73.2731 234.309 73.2731 236.725C73.2731 239.141 72.7155 241.313 71.6004 243.241C70.4852 245.146 68.9636 246.645 67.0353 247.737C65.1071 248.805 62.993 249.34 60.693 249.34ZM60.693 242.997C62.4354 242.997 63.8061 242.428 64.805 241.29C65.8273 240.151 66.3384 238.63 66.3384 236.725C66.3384 234.773 65.8273 233.24 64.805 232.125C63.8061 230.986 62.4354 230.417 60.693 230.417C58.9274 230.417 57.5451 230.986 56.5461 232.125C55.5471 233.24 55.0476 234.773 55.0476 236.725C55.0476 238.653 55.5471 240.186 56.5461 241.325C57.5451 242.44 58.9274 242.997 60.693 242.997ZM86.0661 224.528C88.6448 224.528 90.8983 225.051 92.8265 226.096C94.778 227.118 96.2765 228.559 97.3219 230.417C98.3674 232.276 98.8901 234.402 98.8901 236.794C98.8901 239.164 98.3557 241.278 97.2871 243.137C96.2416 244.995 94.7432 246.459 92.7917 247.528C90.8634 248.573 88.6216 249.096 86.0661 249.096H76.3435V224.528H86.0661ZM85.5433 243.067C87.5413 243.067 89.1094 242.521 90.2478 241.429C91.3862 240.337 91.9553 238.792 91.9553 236.794C91.9553 234.773 91.3862 233.217 90.2478 232.125C89.1094 231.01 87.5413 230.452 85.5433 230.452H83.1737V243.067H85.5433Z" fill="#F5CB58"/>
<path d="M101.167 236.829C101.167 234.413 101.69 232.264 102.736 230.382C103.781 228.477 105.233 227.002 107.092 225.957C108.973 224.888 111.099 224.354 113.469 224.354C116.373 224.354 118.859 225.12 120.926 226.654C122.994 228.187 124.376 230.278 125.073 232.926H118.522C118.034 231.904 117.337 231.126 116.431 230.591C115.548 230.057 114.537 229.79 113.399 229.79C111.564 229.79 110.077 230.429 108.939 231.707C107.8 232.984 107.231 234.692 107.231 236.829C107.231 238.967 107.8 240.674 108.939 241.952C110.077 243.23 111.564 243.869 113.399 243.869C114.537 243.869 115.548 243.601 116.431 243.067C117.337 242.533 118.034 241.754 118.522 240.732H125.073C124.376 243.381 122.994 245.472 120.926 247.005C118.859 248.515 116.373 249.27 113.469 249.27C111.099 249.27 108.973 248.747 107.092 247.702C105.233 246.633 103.781 245.158 102.736 243.276C101.69 241.394 101.167 239.245 101.167 236.829ZM140.292 249.34C137.992 249.34 135.878 248.805 133.949 247.737C132.044 246.668 130.523 245.181 129.384 243.276C128.269 241.348 127.712 239.187 127.712 236.794C127.712 234.402 128.269 232.253 129.384 230.348C130.523 228.443 132.044 226.956 133.949 225.887C135.878 224.818 137.992 224.284 140.292 224.284C142.592 224.284 144.694 224.818 146.599 225.887C148.527 226.956 150.038 228.443 151.129 230.348C152.245 232.253 152.802 234.402 152.802 236.794C152.802 239.187 152.245 241.348 151.129 243.276C150.014 245.181 148.504 246.668 146.599 247.737C144.694 248.805 142.592 249.34 140.292 249.34ZM140.292 243.903C142.243 243.903 143.8 243.253 144.961 241.952C146.146 240.651 146.739 238.932 146.739 236.794C146.739 234.634 146.146 232.915 144.961 231.637C143.8 230.336 142.243 229.685 140.292 229.685C138.317 229.685 136.737 230.324 135.552 231.602C134.391 232.88 133.81 234.611 133.81 236.794C133.81 238.955 134.391 240.686 135.552 241.987C136.737 243.264 138.317 243.903 140.292 243.903ZM161.972 224.633V239.269C161.972 240.732 162.332 241.859 163.052 242.649C163.772 243.439 164.829 243.834 166.223 243.834C167.617 243.834 168.686 243.439 169.429 242.649C170.173 241.859 170.544 240.732 170.544 239.269V224.633H176.503V239.234C176.503 241.418 176.039 243.264 175.109 244.775C174.18 246.285 172.926 247.423 171.346 248.19C169.789 248.956 168.047 249.34 166.119 249.34C164.19 249.34 162.46 248.968 160.926 248.225C159.416 247.458 158.22 246.319 157.337 244.809C156.454 243.276 156.013 241.418 156.013 239.234V224.633H161.972ZM193.163 249.096L188.076 239.861H186.647V249.096H180.688V224.633H190.689C192.617 224.633 194.255 224.969 195.603 225.643C196.973 226.317 197.996 227.246 198.669 228.431C199.343 229.593 199.68 230.894 199.68 232.334C199.68 233.96 199.215 235.412 198.286 236.69C197.38 237.968 196.032 238.874 194.244 239.408L199.889 249.096H193.163ZM186.647 235.644H190.341C191.433 235.644 192.246 235.377 192.78 234.843C193.338 234.309 193.616 233.554 193.616 232.578C193.616 231.649 193.338 230.917 192.78 230.382C192.246 229.848 191.433 229.581 190.341 229.581H186.647V235.644ZM221.019 224.633V229.407H214.537V249.096H208.578V229.407H202.096V224.633H221.019Z" fill="#F8F8F8"/>
<path d="M196.573 94.1298C210.451 79.3019 214.851 56.3072 207.429 37.4033C200.007 18.4993 181.137 4.64111 160.878 3.21626C130.171 1.05629 98.2106 30.168 96.9393 60.9273C96.6283 68.4497 98.6982 76.9812 105.238 80.7116C111.325 84.1836 119.633 81.9617 124.199 76.646C128.765 71.3304 129.914 63.6685 128.475 56.8102C127.036 49.9519 123.293 43.7862 118.995 38.2515C104.487 19.5689 84.3632 1.44079 59.1217 3.21626C38.8632 4.64147 19.9931 18.4993 12.5709 37.4033C5.14861 56.3072 9.54928 79.3019 23.4266 94.1298" stroke="#F5CB58" stroke-width="6.18942" stroke-miterlimit="10" stroke-linecap="round" stroke-linejoin="round"/>
<path d="M138.79 158.875L118.257 178.85C113.738 183.246 106.496 183.082 102.181 178.484C96.3888 172.313 88.5972 164.12 83.2056 158.875" stroke="#F5CB58" stroke-width="6.18942" stroke-miterlimit="10" stroke-linecap="round" stroke-linejoin="round"/>
<path d="M65.1721 139.728C73.6964 131.786 71.608 115.689 60.5075 103.775C49.407 91.8599 33.498 88.6392 24.9737 96.581C16.4494 104.523 18.5378 120.62 29.6383 132.534C40.7388 144.449 56.6478 147.67 65.1721 139.728Z" stroke="#F5CB58" stroke-width="6.18942" stroke-miterlimit="10" stroke-linecap="round" stroke-linejoin="round"/>
<path d="M192.221 100.131L163.85 133.11" stroke="#F5CB58" stroke-width="6.18942" stroke-miterlimit="10" stroke-linecap="round" stroke-linejoin="round"/>
<path d="M152.73 118.213L174.102 95.5762C184.807 85.999 210.789 105.644 199.144 120.84L177.982 143.256" stroke="#F5CB58" stroke-width="6.18942" stroke-miterlimit="10" stroke-linecap="round" stroke-linejoin="round"/>
</svg>
