<svg width="65" height="55" viewBox="0 0 65 55" fill="none" xmlns="http://www.w3.org/2000/svg">
<path d="M18.6 46.6198C14.5138 44.3852 11.0704 41.1381 8.60005 37.1899C3.09004 28.3999 10.1501 20.4599 17.6901 16.1899C21.6026 14.0754 25.9195 12.8162 30.3552 12.4956C34.7909 12.1749 39.2442 12.8 43.4201 14.3298M50.3 18.0698C52.7413 19.9174 54.7824 22.241 56.3 24.8999L56.3801 25.05C62.5701 36.11 50.7401 45.0499 41.3801 48.3999C36.0382 50.3055 30.245 50.5529 24.76 49.1099M55.7202 10.9099C55.7202 10.9099 60.2576 14.2496 62.2102 16.28M2.5 16.28C2.5 16.28 15.8701 2.5 32.3601 2.5C38.4622 2.64307 44.4376 4.26993 49.77 7.23999M25.3001 37.43C24.0692 36.0577 23.2622 34.3581 22.9768 32.5369C22.6915 30.7156 22.9398 28.8506 23.6919 27.1675C24.4441 25.4845 25.6679 24.0555 27.2151 23.0533C28.7623 22.051 30.5667 21.5185 32.4102 21.52C33.9246 21.5163 35.4172 21.8798 36.76 22.5799M41.9502 31.03C41.9475 33.5594 40.9416 35.9842 39.1531 37.7727C37.3646 39.5612 34.9395 40.5672 32.4102 40.5698M52.7201 4.34993L14.7801 52.2399" stroke="#E95322" stroke-width="5" stroke-linecap="round" stroke-linejoin="round"/>
</svg>
