<svg width="65" height="53" viewBox="0 0 65 53" fill="none" xmlns="http://www.w3.org/2000/svg">
<path d="M2.5 16.28C2.5 16.28 15.86 2.5 32.35 2.5C48.84 2.5 62.2001 16.28 62.2001 16.28M56.31 24.8898C56.3405 24.9377 56.3672 24.988 56.39 25.04C62.58 36.1 50.76 45.0398 41.39 48.3998C35.4522 50.5505 28.9583 50.6108 22.9816 48.5707C17.005 46.5306 11.9034 42.5123 8.51996 37.1799C2.99996 28.3999 10.0699 20.4599 17.5999 16.1799C29.9399 9.11986 48.91 11.8998 56.31 24.8898ZM41.94 31.02C41.94 36.2888 37.6688 40.56 32.4 40.56C27.1312 40.56 22.86 36.2888 22.86 31.02C22.86 25.7512 27.1312 21.48 32.4 21.48C37.6688 21.48 41.94 25.7512 41.94 31.02Z" stroke="#E95322" stroke-width="5" stroke-linecap="round" stroke-linejoin="round"/>
</svg>
